HIERARCHY
ROOT hip
{
  OFFSET 0.00112043 5.09927 -9.65472
  CHANNELS 6 Xposition Yposition Zposition Zrotation Xrotation Yrotation
  JOINT abdomen
  {
    OFFSET 0 -1.186 -1.5018
    CHANNELS 3 Zrotation Xrotation Yrotation
    JOINT abdomen2
    {
      OFFSET 0 9.964 0.2134
      CHANNELS 3 Zrotation Xrotation Yrotation
      JOINT chest
      {
        OFFSET 0 13.134 -3.2573
        CHANNELS 3 Zrotation Xrotation Yrotation
        JOINT neck
        {
          OFFSET 0 20.686 -1.6905
          CHANNELS 3 Zrotation Xrotation Yrotation
          JOINT head
          {
            OFFSET 0 7.238 -0.1237
            CHANNELS 3 Zrotation Xrotation Yrotation
            End Site
            {
              OFFSET 0 0 0
            }
          }
        }
        JOINT lCollar
        {
          OFFSET 1.7069 20.075 5.0056
          CHANNELS 3 Zrotation Xrotation Yrotation
          JOINT lShldr
          {
            OFFSET 13.6458 -0.047 -4.849
            CHANNELS 3 Zrotation Xrotation Yrotation
            JOINT lForeArm
            {
              OFFSET 28.3255 -0.9759 2.2888
              CHANNELS 3 Zrotation Xrotation Yrotation
              JOINT lHand
              {
                OFFSET 22.1583 -0.53 10.8316
                CHANNELS 3 Zrotation Xrotation Yrotation
                JOINT lThumb1
                {
                  OFFSET 0.786 0.112 2.5817
                  CHANNELS 3 Zrotation Xrotation Yrotation
                  JOINT lThumb2
                  {
                    OFFSET 0.3601 -0.878 4.2331
                    CHANNELS 3 Zrotation Xrotation Yrotation
                    JOINT lThumb2_End
                    {
                      OFFSET 1.8127 -1.216 2.2227
                      CHANNELS 3 Zrotation Xrotation Yrotation
                      End Site
                      {
                        OFFSET 0.0181 -0.0122 0.0222
                      }
                    }
                  }
                }
                JOINT lCarpal1
                {
                  OFFSET 0.9571 1.114 1.7695
                  CHANNELS 3 Zrotation Xrotation Yrotation
                  JOINT lIndex1
                  {
                    OFFSET 4.1246 0.487 4.1451
                    CHANNELS 3 Zrotation Xrotation Yrotation
                    JOINT lIndex2
                    {
                      OFFSET 3.4052 -1.454 2.7682
                      CHANNELS 3 Zrotation Xrotation Yrotation
                      JOINT lIndex2_End
                      {
                        OFFSET 1.4531 -1.795 1.2713
                        CHANNELS 3 Zrotation Xrotation Yrotation
                        End Site
                        {
                          OFFSET 0.0145 -0.0179 0.0127
                        }
                      }
                    }
                  }
                  JOINT lMid1
                  {
                    OFFSET 5.6954 0.21 2.1184
                    CHANNELS 3 Zrotation Xrotation Yrotation
                    JOINT lMid2
                    {
                      OFFSET 3.9766 -1.54 2.3863
                      CHANNELS 3 Zrotation Xrotation Yrotation
                      JOINT lMid2_End
                      {
                        OFFSET 1.4042 -1.926 1.125
                        CHANNELS 3 Zrotation Xrotation Yrotation
                        End Site
                        {
                          OFFSET 0.014 -0.0193 0.0113
                        }
                      }
                    }
                  }
                }
                JOINT lCarpal2
                {
                  OFFSET 2.0956 0.66 -0.3894
                  CHANNELS 3 Zrotation Xrotation Yrotation
                  JOINT lRing1
                  {
                    OFFSET 5.0395 -0.09 2.4971
                    CHANNELS 3 Zrotation Xrotation Yrotation
                    JOINT lRing2
                    {
                      OFFSET 3.7921 -1.552 1.4806
                      CHANNELS 3 Zrotation Xrotation Yrotation
                      JOINT lRing2_End
                      {
                        OFFSET 1.4655 -1.808 0.9609
                        CHANNELS 3 Zrotation Xrotation Yrotation
                        End Site
                        {
                          OFFSET 0.0147 -0.0181 0.0096
                        }
                      }
                    }
                  }
                  JOINT lPinky1
                  {
                    OFFSET 4.9141 -1.269 0.3591
                    CHANNELS 3 Zrotation Xrotation Yrotation
                    JOINT lPinky2
                    {
                      OFFSET 3.1477 -1.685 0.8462
                      CHANNELS 3 Zrotation Xrotation Yrotation
                      JOINT lPinky2_End
                      {
                        OFFSET 0.8055 -1.585 0.7955
                        CHANNELS 3 Zrotation Xrotation Yrotation
                        End Site
                        {
                          OFFSET 0.0081 -0.0158 0.008
                        }
                      }
                    }
                  }
                }
              }
            }
          }
        }
        JOINT rCollar
        {
          OFFSET -1.7069 20.075 5.0056
          CHANNELS 3 Zrotation Xrotation Yrotation
          JOINT rShldr
          {
            OFFSET -13.6458 -0.047 -4.849
            CHANNELS 3 Zrotation Xrotation Yrotation
            JOINT rForeArm
            {
              OFFSET -28.3255 -0.9759 2.2888
              CHANNELS 3 Zrotation Xrotation Yrotation
              JOINT rHand
              {
                OFFSET -22.1583 -0.53 10.8316
                CHANNELS 3 Zrotation Xrotation Yrotation
                JOINT rThumb1
                {
                  OFFSET -0.786 0.112 2.5817
                  CHANNELS 3 Zrotation Xrotation Yrotation
                  JOINT rThumb2
                  {
                    OFFSET -0.3601 -0.878 4.2331
                    CHANNELS 3 Zrotation Xrotation Yrotation
                    JOINT rThumb2_End
                    {
                      OFFSET -1.8127 -1.216 2.2227
                      CHANNELS 3 Zrotation Xrotation Yrotation
                      End Site
                      {
                        OFFSET -0.0181 -0.0122 0.0222
                      }
                    }
                  }
                }
                JOINT rCarpal1
                {
                  OFFSET -0.9571 1.114 1.7695
                  CHANNELS 3 Zrotation Xrotation Yrotation
                  JOINT rIndex1
                  {
                    OFFSET -4.1246 0.487 4.1451
                    CHANNELS 3 Zrotation Xrotation Yrotation
                    JOINT rIndex2
                    {
                      OFFSET -3.4052 -1.454 2.7682
                      CHANNELS 3 Zrotation Xrotation Yrotation
                      JOINT rIndex2_End
                      {
                        OFFSET -1.4531 -1.795 1.2713
                        CHANNELS 3 Zrotation Xrotation Yrotation
                        End Site
                        {
                          OFFSET -0.0145 -0.018 0.0127
                        }
                      }
                    }
                  }
                  JOINT rMid1
                  {
                    OFFSET -5.6954 0.21 2.1184
                    CHANNELS 3 Zrotation Xrotation Yrotation
                    JOINT rMid2
                    {
                      OFFSET -3.9766 -1.54 2.3863
                      CHANNELS 3 Zrotation Xrotation Yrotation
                      JOINT rMid2_End
                      {
                        OFFSET -1.4042 -1.926 1.125
                        CHANNELS 3 Zrotation Xrotation Yrotation
                        End Site
                        {
                          OFFSET -0.014 -0.0193 0.0113
                        }
                      }
                    }
                  }
                }
                JOINT rCarpal2
                {
                  OFFSET -2.0956 0.66 -0.3894
                  CHANNELS 3 Zrotation Xrotation Yrotation
                  JOINT rRing1
                  {
                    OFFSET -5.0395 -0.09 2.4971
                    CHANNELS 3 Zrotation Xrotation Yrotation
                    JOINT rRing2
                    {
                      OFFSET -3.7921 -1.552 1.4806
                      CHANNELS 3 Zrotation Xrotation Yrotation
                      JOINT rRing2_End
                      {
                        OFFSET -1.4655 -1.808 0.9609
                        CHANNELS 3 Zrotation Xrotation Yrotation
                        End Site
                        {
                          OFFSET -0.0147 -0.0181 0.0096
                        }
                      }
                    }
                  }
                  JOINT rPinky1
                  {
                    OFFSET -4.9141 -1.269 0.3592
                    CHANNELS 3 Zrotation Xrotation Yrotation
                    JOINT rPinky2
                    {
                      OFFSET -3.1477 -1.685 0.8462
                      CHANNELS 3 Zrotation Xrotation Yrotation
                      JOINT rPinky2_End
                      {
                        OFFSET -0.8055 -1.585 0.7955
                        CHANNELS 3 Zrotation Xrotation Yrotation
                        End Site
                        {
                          OFFSET -0.0081 -0.0158 0.008
                        }
                      }
                    }
                  }
                }
              }
            }
          }
        }
      }
    }
  }
  JOINT lThigh
  {
    OFFSET 8.367 -8.2066 0.5982
    CHANNELS 3 Zrotation Xrotation Yrotation
    JOINT lShin
    {
      OFFSET 2.1923 -43.463 -0.4932
      CHANNELS 3 Zrotation Xrotation Yrotation
      JOINT lFoot
      {
        OFFSET 0.7333 -45.8593 -2.6451
        CHANNELS 3 Zrotation Xrotation Yrotation
        End Site
        {
          OFFSET 2.6618 -4.2699 12.3931
        }
      }
    }
  }
  JOINT rThigh
  {
    OFFSET -8.367 -8.2066 0.5982
    CHANNELS 3 Zrotation Xrotation Yrotation
    JOINT rShin
    {
      OFFSET -2.1923 -43.463 -0.4931
      CHANNELS 3 Zrotation Xrotation Yrotation
      JOINT rFoot
      {
        OFFSET -0.7333 -45.8593 -2.6451
        CHANNELS 3 Zrotation Xrotation Yrotation
        End Site
        {
          OFFSET -2.6618 -4.2699 12.3931
        }
      }
    }
  }
}
MOTION
Frames:	6
Frame Time:	0.0333333
0 91.7903 2.51682 0 0 -0 0 0 -0 0 0 -0 0 0 -0 0 0 -0 0 0 -0 0 0 -0 1.66051 0.0835086 5.75766 -0.0175111 0.895433 15.7816 7.95139e-016 -1.98785e-016 -0 5.46658e-016 -3.97569e-016 -0 5.96354e-016 0 -0 3.97569e-016 1.98785e-016 9.54166e-015 1.49089e-016 -3.97569e-016 -0 6.4605e-016 0 3.18055e-015 5.96354e-016 0 3.18055e-015 8.94531e-016 -1.98785e-016 6.36111e-015 6.4605e-016 0 3.18055e-015 5.96354e-016 0 3.18055e-015 8.94531e-016 -1.98785e-016 6.36111e-015 1.49089e-016 -3.97569e-016 -0 6.4605e-016 0 3.18055e-015 5.96354e-016 0 3.18055e-015 8.94531e-016 -1.98785e-016 6.36111e-015 6.4605e-016 0 3.18055e-015 5.96354e-016 0 3.18055e-015 8.94531e-016 -1.98785e-016 6.36111e-015 0 0 -0 -1.4496 0.0636048 -5.0245 -1.74811 1.20616 -16.8394 -1.19271e-015 1.98785e-016 -3.18055e-015 -3.97569e-016 1.98785e-016 -3.18055e-015 -2.98177e-016 1.98785e-016 -3.18055e-015 -2.98177e-016 3.97569e-016 -0 4.96962e-016 0 -6.36111e-015 -9.93923e-017 3.97569e-016 -0 -8.94531e-016 5.96354e-016 -0 -3.97569e-016 3.97569e-016 -0 -9.93923e-017 3.97569e-016 -0 -8.94531e-016 5.96354e-016 -0 -3.97569e-016 3.97569e-016 -0 4.96962e-016 0 -6.36111e-015 -9.93923e-017 3.97569e-016 -0 -8.94531e-016 5.96354e-016 -0 -3.97569e-016 3.97569e-016 -0 -9.93923e-017 3.97569e-016 -0 -8.94531e-016 5.96354e-016 -0 -3.97569e-016 3.97569e-016 -0 -4.66111 -0.998717 0.12318 0.00986924 1.54847 0.176523 4.65186 -0.572283 -0.254274 4.66111 -0.998765 -0.123176 -0.00986867 1.54869 -0.176537 -4.65186 -0.572453 0.25427 
-0.684357 54.1383 33.4631 -160.413 79.269 1.73588e-006 -0.550996 -1.12476 -0.0926097 -1.10412 -2.24867 -0.196125 -1.10412 -2.24865 -0.196125 -1.8481e-005 14.2924 1.2554e-006 3.0552e-007 9.83037 -4.19319e-006 15.0898 9.03864 23.8251 -17.9981 24.0904 50.9349 4.2479 27.785 14.7589 46.5033 -18.5745 7.28438 -6.36111e-015 -7.95139e-015 3.18055e-015 -1.55839e-006 7.08513e-007 -5.85887e-006 -1.76556e-031 -1.59028e-015 -6.36111e-015 -6.36111e-015 -3.18055e-015 3.18055e-015 6.36111e-015 6.36111e-015 6.36111e-015 -1.55839e-006 7.08513e-007 -5.85887e-006 9.54166e-015 3.18055e-015 -0 6.36111e-015 6.36111e-015 6.36111e-015 -1.55839e-006 7.08513e-007 -5.85887e-006 9.54166e-015 3.18055e-015 -0 -6.36111e-015 -3.18055e-015 3.18055e-015 6.36111e-015 6.36111e-015 6.36111e-015 -1.55839e-006 7.08513e-007 -5.85887e-006 9.54166e-015 3.18055e-015 -0 6.36111e-015 6.36111e-015 6.36111e-015 -1.55839e-006 7.08513e-007 -5.85887e-006 9.54166e-015 3.18055e-015 -0 -15.5171 9.27567 -26.8799 16.8441 24.9601 -46.9145 -5.33773 28.1721 -15.0942 -46.3369 -18.0418 -7.98503 -3.46072e-007 -2.22992e-007 1.12351e-007 -1.73036e-007 -1.11496e-007 5.61756e-008 -1.73036e-007 -1.11496e-007 5.61756e-008 3.18055e-015 -1.59028e-015 -0 -3.46072e-007 -2.22992e-007 1.12351e-007 -1.73036e-007 -1.11496e-007 5.61756e-008 -1.73036e-007 -1.11496e-007 5.61756e-008 -3.46072e-007 -2.22992e-007 1.12351e-007 -1.73036e-007 -1.11496e-007 5.61756e-008 -1.73036e-007 -1.11496e-007 5.61756e-008 3.18055e-015 -1.59028e-015 -0 -3.46072e-007 -2.22992e-007 1.12351e-007 -1.73036e-007 -1.11496e-007 5.61756e-008 -1.73036e-007 -1.11496e-007 5.61756e-008 -3.46072e-007 -2.22992e-007 1.12351e-007 -1.73036e-007 -1.11496e-007 5.61756e-008 -1.73036e-007 -1.11496e-007 5.61756e-008 38.087 17.7601 30.4054 47.2925 48.9782 -48.045 -6.4176 23.9414 -20.7049 -35.6352 15.7068 -32.3249 -54.9203 51.9296 54.5579 5.78563 19.8779 18.6103 
3.00335 51.482 35.0284 -6.66284 87.2885 180 -0.647633 -1.51708 -0.114759 -1.29897 -3.03281 -0.246803 -1.29897 -3.03279 -0.246802 -1.07203e-006 16.1597 -9.10402e-006 1.1973e-006 11.0696 -4.42406e-007 16.7608 10.2252 26.8272 -24.949 24.3044 60.203 4.73649 32.2184 14.7728 55.273 -20.6719 9.9448 1.01219e-006 5.80019e-007 -2.92871e-006 6.26931e-008 6.30817e-007 -2.92448e-006 5.22352e-007 2.95052e-007 -3.36351e-006 -1.59028e-015 -7.95139e-016 -0 1.01219e-006 5.80019e-007 -2.92871e-006 6.26931e-008 6.30817e-007 -2.92448e-006 5.22352e-007 2.95052e-007 -3.36351e-006 1.01219e-006 5.80019e-007 -2.92871e-006 6.26931e-008 6.30817e-007 -2.92448e-006 5.22352e-007 2.95052e-007 -3.36351e-006 -1.59028e-015 -7.95139e-016 -0 1.01219e-006 5.80019e-007 -2.92871e-006 6.26931e-008 6.30817e-007 -2.92448e-006 5.22352e-007 2.95052e-007 -3.36351e-006 1.01219e-006 5.80019e-007 -2.92871e-006 6.26931e-008 6.30817e-007 -2.92448e-006 5.22352e-007 2.95052e-007 -3.36351e-006 -17.1652 10.3847 -30.2158 23.6693 25.6856 -56.0054 -5.73962 32.6213 -15.0119 -55.1102 -20.0732 -10.7235 1.39791e-006 9.32262e-007 4.34539e-008 -1.86404e-006 -2.33306e-007 -1.93916e-007 1.63098e-006 5.82784e-007 1.18685e-007 1.59028e-015 -3.97569e-016 3.18055e-015 1.39791e-006 9.32262e-007 4.34539e-008 -1.86404e-006 -2.33306e-007 -1.93916e-007 1.63098e-006 5.82784e-007 1.18685e-007 1.39791e-006 9.32262e-007 4.34539e-008 -1.86404e-006 -2.33306e-007 -1.93916e-007 1.63098e-006 5.82784e-007 1.18685e-007 1.59028e-015 -3.97569e-016 3.18055e-015 1.39791e-006 9.32262e-007 4.34539e-008 -1.86404e-006 -2.33306e-007 -1.93916e-007 1.63098e-006 5.82784e-007 1.18685e-007 1.39791e-006 9.32262e-007 4.34539e-008 -1.86404e-006 -2.33306e-007 -1.93916e-007 1.63098e-006 5.82784e-007 1.18685e-007 43.7844 17.51 37.3127 67.866 51.0886 -65.3865 -5.9645 27.0349 -24.6836 -41.4552 18.4494 -39.0025 -70.488 51.4178 67.168 5.58219 24.1222 23.2227 
1.84302 52.5139 35.3149 -179.996 89.9989 -1.48213e-006 -0.624094 -1.73016 -0.115405 -1.25253 -3.45896 -0.249838 -1.25253 -3.45892 -0.249838 -4.07083e-005 14.9776 3.166e-006 -2.9487e-007 10.2007 -9.47683e-008 16.2147 9.99004 24.551 -23.6082 23.8947 59.2151 4.16229 31.1454 15.3 53.8412 -19.9937 9.58654 -2.20695e-031 3.97569e-015 3.18055e-015 -1.59028e-015 3.18055e-015 -0 1.59028e-015 3.97569e-015 3.18055e-015 0 0 -0 1.59028e-015 3.97569e-015 -0 -1.59028e-015 4.77083e-015 3.18055e-015 -4.77083e-015 1.59028e-015 6.36111e-015 1.59028e-015 3.97569e-015 -0 -1.59028e-015 4.77083e-015 3.18055e-015 -4.77083e-015 1.59028e-015 6.36111e-015 0 0 -0 1.59028e-015 3.97569e-015 -0 -1.59028e-015 4.77083e-015 3.18055e-015 -4.77083e-015 1.59028e-015 6.36111e-015 1.59028e-015 3.97569e-015 -0 -1.59028e-015 4.77083e-015 3.18055e-015 -4.77083e-015 1.59028e-015 6.36111e-015 -16.6466 10.1564 -27.5807 22.4965 25.0436 -55.3693 -5.16868 31.5547 -15.613 -53.7492 -19.4859 -10.3064 -2.49306e-007 -5.24562e-007 -7.63568e-006 -4.71283e-007 7.01239e-007 -1.16256e-007 -2.34505e-006 4.59912e-007 -1.5328e-007 3.18055e-015 -2.38542e-015 -0 -2.49306e-007 -5.24562e-007 -7.63568e-006 -4.71283e-007 7.01239e-007 -1.16256e-007 -2.34505e-006 4.59912e-007 -1.5328e-007 -2.49306e-007 -5.24562e-007 -7.63568e-006 -4.71283e-007 7.01239e-007 -1.16256e-007 -2.34505e-006 4.59912e-007 -1.5328e-007 3.18055e-015 -2.38542e-015 -0 -2.49306e-007 -5.24562e-007 -7.63568e-006 -4.71283e-007 7.01239e-007 -1.16256e-007 -2.34505e-006 4.59912e-007 -1.5328e-007 -2.49306e-007 -5.24562e-007 -7.63568e-006 -4.71283e-007 7.01239e-007 -1.16256e-007 -2.34505e-006 4.59912e-007 -1.5328e-007 42.9314 17.3735 37.5349 61.6957 50.9528 -60.2627 -3.9661 26.5026 -25.1597 -40.6357 17.5597 -39.0462 -65.6216 51.7494 63.3615 3.84685 23.4104 23.3089 
1.8327 52.5951 35.8282 0.00370788 89.4459 -180 -0.625093 -1.97974 -0.120463 -1.25548 -3.95804 -0.262781 -1.25548 -3.95807 -0.262781 -1.42691e-005 14.4115 2.12834e-006 1.03794e-007 9.75803 6.49784e-007 16.1083 10.0391 23.343 -23.9678 23.4864 60.2839 3.80174 31.1854 15.7213 54.4907 -19.845 9.86269 3.18055e-015 -4.77083e-015 -3.18055e-015 -2.20695e-031 -3.97569e-015 -3.18055e-015 -3.18055e-015 -7.95139e-016 3.18055e-015 3.18055e-015 -3.97569e-015 -3.18055e-015 -1.59028e-015 -1.59028e-015 3.18055e-015 -1.59028e-015 7.95139e-016 3.18055e-015 0 7.95139e-016 -0 -1.59028e-015 -1.59028e-015 3.18055e-015 -1.59028e-015 7.95139e-016 3.18055e-015 0 7.95139e-016 -0 3.18055e-015 -3.97569e-015 -3.18055e-015 -1.59028e-015 -1.59028e-015 3.18055e-015 -1.59028e-015 7.95139e-016 3.18055e-015 0 7.95139e-016 -0 -1.59028e-015 -1.59028e-015 3.18055e-015 -1.59028e-015 7.95139e-016 3.18055e-015 0 7.95139e-016 -0 -16.5567 10.1936 -26.1523 22.9702 24.5556 -56.6916 -4.79342 31.6025 -16.0737 -54.4561 -19.3954 -10.552 1.11319e-014 1.90833e-014 -0 9.54166e-015 1.74931e-014 -0 4.77083e-015 1.90833e-014 -6.36111e-015 3.18055e-015 -7.95139e-016 3.18055e-015 6.36111e-015 1.82882e-014 -3.18055e-015 9.54166e-015 1.74931e-014 -3.18055e-015 7.95139e-015 1.82882e-014 -9.54166e-015 6.36111e-015 1.82882e-014 -3.18055e-015 9.54166e-015 1.74931e-014 -3.18055e-015 7.95139e-015 1.82882e-014 -9.54166e-015 3.18055e-015 -7.95139e-016 3.18055e-015 6.36111e-015 1.82882e-014 -3.18055e-015 9.54166e-015 1.74931e-014 -3.18055e-015 7.95139e-015 1.82882e-014 -9.54166e-015 6.36111e-015 1.82882e-014 -3.18055e-015 9.54166e-015 1.74931e-014 -3.18055e-015 7.95139e-015 1.82882e-014 -9.54166e-015 43.4277 17.1439 39.0818 61.1016 50.9552 -59.8205 -2.29121 26.6762 -26.3436 -41.148 17.2745 -40.4059 -64.8281 51.7206 62.7572 2.37944 23.7895 24.3654 
1.82243 52.6756 36.3416 0.00370788 88.8899 -180 -0.626113 -2.22949 -0.125547 -1.25854 -4.45746 -0.275804 -1.25854 -4.45745 -0.275804 -3.145e-005 13.8441 1.06075e-005 2.41211e-007 9.31481 -5.23887e-008 16.0027 10.0904 22.1327 -24.3183 23.0715 61.348 3.44066 31.2235 16.143 55.1392 -19.6932 10.1369 1.28645e-006 4.28308e-007 -5.8638e-006 4.27982e-007 7.28167e-007 1.15024e-007 9.20189e-007 3.83879e-007 -3.42386e-006 0 2.38542e-015 -0 1.28645e-006 4.28308e-007 -5.8638e-006 4.27982e-007 7.28167e-007 1.15024e-007 9.20189e-007 3.83879e-007 -3.42386e-006 1.28645e-006 4.28308e-007 -5.8638e-006 4.27982e-007 7.28167e-007 1.15024e-007 9.20189e-007 3.83879e-007 -3.42386e-006 0 2.38542e-015 -0 1.28645e-006 4.28308e-007 -5.8638e-006 4.27982e-007 7.28167e-007 1.15024e-007 9.20189e-007 3.83879e-007 -3.42386e-006 1.28645e-006 4.28308e-007 -5.8638e-006 4.27982e-007 7.28167e-007 1.15024e-007 9.20189e-007 3.83879e-007 -3.42386e-006 -16.4675 10.233 -24.72 23.4305 24.0568 -58.0069 -4.41746 31.6476 -16.535 -55.1626 -19.302 -10.7963 -3.18055e-015 -3.97569e-015 -9.54166e-015 6.74907e-008 4.047e-007 -2.02701e-006 -3.66078e-006 -2.51877e-006 -3.54024e-006 -3.18055e-015 -7.95139e-016 -6.36111e-015 -3.18055e-015 -3.97569e-015 -0 6.74907e-008 4.047e-007 -2.02701e-006 -3.66078e-006 -2.51877e-006 -3.54024e-006 -3.18055e-015 -3.97569e-015 -0 6.74907e-008 4.047e-007 -2.02701e-006 -3.66078e-006 -2.51877e-006 -3.54024e-006 -3.18055e-015 -7.95139e-016 -6.36111e-015 -3.18055e-015 -3.97569e-015 -0 6.74907e-008 4.047e-007 -2.02701e-006 -3.66078e-006 -2.51877e-006 -3.54024e-006 -3.18055e-015 -3.97569e-015 -0 6.74907e-008 4.047e-007 -2.02701e-006 -3.66078e-006 -2.51877e-006 -3.54024e-006 43.9285 16.927 40.638 60.5086 50.9548 -59.379 -0.604258 26.8179 -27.5365 -41.6647 17.0002 -41.7743 -64.0368 51.6865 62.1546 0.894996 24.1436 25.4365 
